<mxfile host="app.diagrams.net" modified="2023-04-08T08:41:12.656Z" agent="Mozilla/5.0 (X11; Linux x86_64) AppleWebKit/537.36 (KHTML, like Gecko) Chrome/112.0.0.0 Safari/537.36 Edg/112.0.1722.34" etag="5-8BErBPUuHno5nW03i5" version="21.1.5" type="github">
  <diagram name="Page-1" id="w8iUw4BWYdw8ZFRSF8Fc">
    <mxGraphModel dx="1397" dy="789" grid="1" gridSize="10" guides="1" tooltips="1" connect="1" arrows="1" fold="1" page="1" pageScale="1" pageWidth="850" pageHeight="1100" math="0" shadow="0">
      <root>
        <mxCell id="0" />
        <mxCell id="1" parent="0" />
        <mxCell id="dngeCHdkIWNtFOBDfdXb-1" value="点击触发事件，调用函数" style="rounded=0;whiteSpace=wrap;html=1;" vertex="1" parent="1">
          <mxGeometry x="80" y="60" width="120" height="60" as="geometry" />
        </mxCell>
        <mxCell id="dngeCHdkIWNtFOBDfdXb-2" value="数据部分&lt;br&gt;请求部分" style="rounded=0;whiteSpace=wrap;html=1;fontFamily=Tahoma;" vertex="1" parent="1">
          <mxGeometry x="240" y="120" width="80" height="50" as="geometry" />
        </mxCell>
        <mxCell id="dngeCHdkIWNtFOBDfdXb-3" value="page页码&lt;br&gt;size 偏移量&lt;br&gt;text 输入文本" style="rounded=0;whiteSpace=wrap;html=1;" vertex="1" parent="1">
          <mxGeometry x="390" y="60" width="100" height="50" as="geometry" />
        </mxCell>
        <mxCell id="dngeCHdkIWNtFOBDfdXb-4" value="定位信息" style="text;html=1;align=center;verticalAlign=middle;resizable=0;points=[];autosize=1;strokeColor=none;fillColor=none;" vertex="1" parent="1">
          <mxGeometry x="405" y="30" width="70" height="30" as="geometry" />
        </mxCell>
        <mxCell id="dngeCHdkIWNtFOBDfdXb-5" value="请求URL&lt;br&gt;URL应当包含的参数" style="rounded=0;whiteSpace=wrap;html=1;" vertex="1" parent="1">
          <mxGeometry x="390" y="150" width="120" height="60" as="geometry" />
        </mxCell>
        <mxCell id="dngeCHdkIWNtFOBDfdXb-10" style="edgeStyle=orthogonalEdgeStyle;rounded=0;orthogonalLoop=1;jettySize=auto;html=1;" edge="1" parent="1" source="dngeCHdkIWNtFOBDfdXb-6" target="dngeCHdkIWNtFOBDfdXb-7">
          <mxGeometry relative="1" as="geometry" />
        </mxCell>
        <mxCell id="dngeCHdkIWNtFOBDfdXb-6" value="页面点击搜索按钮" style="whiteSpace=wrap;html=1;aspect=fixed;" vertex="1" parent="1">
          <mxGeometry x="40" y="330" width="80" height="80" as="geometry" />
        </mxCell>
        <mxCell id="dngeCHdkIWNtFOBDfdXb-11" style="edgeStyle=orthogonalEdgeStyle;rounded=0;orthogonalLoop=1;jettySize=auto;html=1;" edge="1" parent="1" source="dngeCHdkIWNtFOBDfdXb-7" target="dngeCHdkIWNtFOBDfdXb-8">
          <mxGeometry relative="1" as="geometry" />
        </mxCell>
        <mxCell id="dngeCHdkIWNtFOBDfdXb-7" value="调用函数获取数据" style="whiteSpace=wrap;html=1;aspect=fixed;" vertex="1" parent="1">
          <mxGeometry x="200" y="330" width="80" height="80" as="geometry" />
        </mxCell>
        <mxCell id="dngeCHdkIWNtFOBDfdXb-8" value="课程内容局部更新" style="whiteSpace=wrap;html=1;aspect=fixed;" vertex="1" parent="1">
          <mxGeometry x="345" y="330" width="80" height="80" as="geometry" />
        </mxCell>
      </root>
    </mxGraphModel>
  </diagram>
</mxfile>
